<?xml version="1.0" encoding="UTF-8"?>
<svg width="24px" height="24px" viewBox="0 0 24 24" version="1.1" xmlns="http://www.w3.org/2000/svg">
    <g stroke="none" stroke-width="1" fill="none" fill-rule="evenodd">
        <path d="M5,5 L7,5 L7,3 L5,3 L5,5 Z M5,7 L3,7 L3,5 L5,5 L5,7 Z M7,9 L5,9 L5,7 L7,7 L7,9 Z M5,11 L3,11 L3,9 L5,9 L5,11 Z M7,13 L5,13 L5,11 L7,11 L7,13 Z M5,15 L3,15 L3,13 L5,13 L5,15 Z M7,17 L5,17 L5,15 L7,15 L7,17 Z M5,19 L3,19 L3,17 L5,17 L5,19 Z M7,21 L5,21 L5,19 L7,19 L7,21 Z M5,23 L3,23 L3,21 L5,21 L5,23 Z M7,1 L5,1 L5,-1 L7,-1 L7,1 Z M5,3 L3,3 L3,1 L5,1 L5,3 Z M7,5 L5,5 L5,3 L7,3 L7,5 Z M5,7 L3,7 L3,5 L5,5 L5,7 Z M7,9 L5,9 L5,7 L7,7 L7,9 Z M5,11 L3,11 L3,9 L5,9 L5,11 Z M7,13 L5,13 L5,11 L7,11 L7,13 Z M5,15 L3,15 L3,13 L5,13 L5,15 Z M7,17 L5,17 L5,15 L7,15 L7,17 Z M5,19 L3,19 L3,17 L5,17 L5,19 Z M7,21 L5,21 L5,19 L7,19 L7,21 Z M5,23 L3,23 L3,21 L5,21 L5,23 Z" fill="#000000" fill-rule="nonzero"/>
    </g>
</svg> 